# xmcd CD database file
#
# Track frame offsets:
#	150
#	15818
#	37509
#	66932
#	76980
#	97063
#	118814
#	143658
#	167176
#
# Disc length: 2645 seconds
#
# Revision: 2
# Processed by: cddbd v1.5.2PL0 Copyright (c) Steve Scherf et al.
# Submitted via: CDex 1.70beta2
#
DISCID=670a5309
DTITLE=Galeone5 - laikan
DYEAR=2010
DGENRE=Jazz
TTITLE0=santa claus
TTITLE1=pruritus
TTITLE2=blütenstaub
TTITLE3=asemme tro äh
TTITLE4=ukunda
TTITLE5=mombasa
TTITLE6=berlin
TTITLE7=ékstasis
TTITLE8=la capitale (la nuit)
EXTD=YEAR: 2010
EXTT0=
EXTT1=
EXTT2=
EXTT3=
EXTT4=
EXTT5=
EXTT6=
EXTT7=
EXTT8=
PLAYORDER=
